<?xml version="1.0" standalone="no"?>
<!DOCTYPE svg PUBLIC "-//W3C//DTD SVG 1.1//EN" "http://www.w3.org/Graphics/SVG/1.1/DTD/svg11.dtd" >
<svg xmlns="http://www.w3.org/2000/svg" xmlns:xlink="http://www.w3.org/1999/xlink" version="1.1">
<metadata></metadata>
<defs>
<font id="hyundai_sans_headregular" horiz-adv-x="1228" >
<font-face units-per-em="2048" ascent="1536" descent="-512" />
<missing-glyph horiz-adv-x="481" />
<glyph horiz-adv-x="0" />
<glyph horiz-adv-x="682" />
<glyph unicode="&#xd;" horiz-adv-x="481" />
<glyph unicode=" "  horiz-adv-x="481" />
<glyph unicode="&#x09;" horiz-adv-x="481" />
<glyph unicode="&#xa0;" horiz-adv-x="481" />
<glyph unicode="!" horiz-adv-x="509" d="M133 0v244h244v-244h-244zM158 1393h196l-41 -955h-116z" />
<glyph unicode="&#x22;" horiz-adv-x="768" d="M111 1393h198l-39 -525h-120zM459 1393h198l-39 -525h-120z" />
<glyph unicode="#" horiz-adv-x="1312" d="M68 348v148h200l94 405h-180v148h215l82 344h160l-82 -344h350l80 344h160l-80 -344h180v-148h-215l-96 -405h197v-148h-232l-80 -348h-159l81 348h-350l-82 -348h-159l81 348h-165zM428 496h350l94 405h-350z" />
<glyph unicode="$" d="M55 299l135 121q133 -230 369 -262v491l-10 2q-178 28 -282.5 125.5t-104.5 247.5q0 147 106.5 256.5t290.5 132.5v195h184v-199q120 -19 215.5 -77.5t153.5 -145.5l-131 -123q-90 126 -238 164v-416q195 -36 300.5 -136t105.5 -261q0 -165 -109.5 -282t-296.5 -148v-211 h-184v204q-95 9 -177 40t-143 77.5t-105 96.5t-79 108zM356 1036q0 -78 53.5 -127t149.5 -67v391q-93 -18 -148 -73t-55 -124zM743 166q101 24 156 89t55 151q0 160 -211 212v-452z" />
<glyph unicode="%" horiz-adv-x="1626" d="M59 1071q0 146 99 244t248 98t246.5 -97.5t97.5 -244.5q0 -148 -97.5 -246t-246.5 -98t-248 98t-99 246zM207 1071q0 -86 55.5 -144.5t143.5 -58.5q86 0 141 58.5t55 144.5q0 85 -55 143t-141 58q-88 0 -143.5 -58t-55.5 -143zM373 0l723 1393h155l-721 -1393h-157z M877 322q0 147 98.5 244.5t247.5 97.5t246.5 -97.5t97.5 -244.5q0 -148 -97.5 -246.5t-246.5 -98.5t-247.5 98.5t-98.5 246.5zM1024 322q0 -86 55.5 -144.5t143.5 -58.5q86 0 141 58.5t55 144.5q0 85 -55 142.5t-141 57.5q-88 0 -143.5 -57.5t-55.5 -142.5z" />
<glyph unicode="&#x26;" horiz-adv-x="1398" d="M57 387q0 151 92 251.5t263 164.5q-107 138 -107 262q0 144 107.5 248t273.5 104q162 0 264.5 -97t102.5 -239q0 -251 -334 -350l-10 -4l254 -276l245 307l133 -109l-262 -325l293 -318v-6h-244l-165 184q-203 -209 -457 -209q-201 0 -325 116.5t-124 295.5zM240 391 q0 -107 77 -177.5t195 -70.5q188 0 338 166l-326 365q-137 -44 -210.5 -109t-73.5 -174zM487 1065q0 -53 25 -100t78 -107l45 14q122 34 178.5 83.5t56.5 125.5q0 72 -52 122t-132 50q-90 0 -144.5 -55t-54.5 -133z" />
<glyph unicode="'" horiz-adv-x="419" d="M111 1393h198l-39 -525h-120z" />
<glyph unicode="(" horiz-adv-x="649" d="M84 535q0 142 27.5 270.5t71 223t104 177.5t118.5 137.5t123 100.5l90 -109q-62 -52 -112 -106.5t-96.5 -128t-77.5 -155t-49.5 -186.5t-18.5 -224q0 -147 27 -272t77.5 -221.5t111 -169.5t138.5 -138l-90 -109q-65 46 -123 100.5t-118.5 137.5t-104 178t-71 223.5 t-27.5 270.5z" />
<glyph unicode=")" horiz-adv-x="649" d="M31 -266q78 65 138.5 138t111 169.5t77.5 221.5t27 272q0 119 -18.5 224t-49.5 186.5t-77.5 155t-96.5 128t-112 106.5l90 109q65 -46 123 -100.5t118.5 -137.5t104 -177.5t71 -223t27.5 -270.5t-27.5 -270.5t-71 -223.5t-104 -178t-118.5 -137.5t-123 -100.5z" />
<glyph unicode="*" horiz-adv-x="874" d="M70 1065l41 141l262 -94l-13 281h152l-10 -281l262 94l41 -141l-266 -74l168 -221l-115 -82l-156 236l-155 -236l-113 82l166 221z" />
<glyph unicode="+" d="M137 539v161h395v396h162v-396h396v-161h-396v-396h-162v396h-395z" />
<glyph unicode="," horiz-adv-x="493" d="M125 0v244h244v-215l-111 -340h-123l101 311h-111z" />
<glyph unicode="-" horiz-adv-x="833" d="M125 545v151h584v-151h-584z" />
<glyph unicode="." horiz-adv-x="493" d="M125 0v244h244v-244h-244z" />
<glyph unicode="/" horiz-adv-x="876" d="M51 0l600 1393h174l-600 -1393h-174z" />
<glyph unicode="0" horiz-adv-x="1323" d="M96 696q0 215 64.5 376.5t193.5 253t308 91.5q268 0 416.5 -196.5t148.5 -524.5t-148.5 -524.5t-416.5 -196.5q-179 0 -308 91.5t-193.5 253t-64.5 376.5zM289 696q0 -164 38 -283.5t123.5 -190t211.5 -70.5t211 70.5t123 190t38 283.5q0 122 -22 220t-66 171.5 t-116.5 113.5t-167.5 40q-126 0 -211.5 -71t-123.5 -190.5t-38 -283.5z" />
<glyph unicode="1" horiz-adv-x="729" d="M6 1161l408 232h143v-1393h-184v1182l-297 -168z" />
<glyph unicode="2" horiz-adv-x="1107" d="M72 0v143q35 71 95 139.5t127 123t140 109.5t138.5 107.5t118.5 106.5t84.5 117.5t31.5 130.5q0 119 -72.5 191.5t-212.5 72.5q-217 0 -289 -219l-147 78q19 58 52.5 110.5t85.5 101t130.5 77t173.5 28.5q217 0 344 -120.5t127 -313.5q0 -88 -31 -167.5t-82.5 -142 t-114.5 -119t-132 -106t-130 -94t-113 -93t-77 -93.5h703v-168h-950z" />
<glyph unicode="3" horiz-adv-x="1153" d="M41 209l115 129q154 -186 370 -186q154 0 251 69t97 189q0 111 -85.5 175t-256.5 64h-126v168h126q128 0 198.5 62t70.5 151q0 102 -77 156.5t-189 54.5q-103 0 -183.5 -41.5t-124.5 -112.5l-116 117q68 94 177.5 153.5t246.5 59.5q209 0 333.5 -100t124.5 -277 q0 -89 -50 -166.5t-136 -121.5q122 -40 191 -134t69 -219q0 -189 -153.5 -306.5t-387.5 -117.5q-283 0 -485 234z" />
<glyph unicode="4" horiz-adv-x="1245" d="M33 373v141l690 879h238v-850h237v-170h-237v-373h-185v373h-743zM270 543h506v649z" />
<glyph unicode="5" horiz-adv-x="1144" d="M43 209l115 129q69 -83 156.5 -134.5t211.5 -51.5q153 0 253 85.5t100 231.5q0 138 -88 218.5t-228 80.5q-171 0 -297 -102l-112 39l2 10l67 678h766v-168h-602l-39 -328q110 47 225 47q140 0 250.5 -53t178 -162t67.5 -260q0 -224 -152.5 -359t-390.5 -135 q-281 0 -483 234z" />
<glyph unicode="6" horiz-adv-x="1261" d="M94 662q0 353 166.5 554t450.5 201q151 0 266.5 -66.5t185.5 -172.5l-131 -111q-51 80 -134.5 127t-186.5 47q-183 0 -298 -130t-128 -359q67 93 168.5 148.5t226.5 55.5q134 0 245.5 -61t178.5 -174t67 -254q0 -140 -70 -253t-189 -176t-261 -63q-177 0 -304 87 t-190 240.5t-63 359.5zM326 465q0 -131 90.5 -222t236.5 -91t237 91t91 222t-91.5 223t-236.5 92t-236 -92t-91 -223z" />
<glyph unicode="7" horiz-adv-x="1005" d="M31 1225v168h948v-142l-594 -1251h-207v6l592 1219h-739z" />
<glyph unicode="8" horiz-adv-x="1265" d="M84 397q0 128 75.5 228t198.5 135q-186 86 -186 293q0 156 122.5 260t338.5 104t338.5 -104t122.5 -260q0 -206 -187 -293q123 -35 199 -135.5t76 -227.5q0 -188 -145 -305t-404 -117t-404 117t-145 305zM274 410q0 -115 95 -189t264 -74t263.5 74t94.5 189 q0 112 -94.5 185t-263.5 73t-264 -73t-95 -185zM362 1044q0 -93 76.5 -148.5t194.5 -55.5t194 55.5t76 148.5q0 92 -76 146.5t-194 54.5t-194.5 -54.5t-76.5 -146.5z" />
<glyph unicode="9" horiz-adv-x="1261" d="M90 926q0 140 70 253t189 175.5t261 62.5q178 0 304.5 -87t189.5 -240.5t63 -358.5q0 -354 -166.5 -555t-449.5 -201q-151 0 -267 67t-186 173l131 111q51 -80 135 -127t187 -47q183 0 298 130t128 359q-67 -93 -168.5 -149t-226.5 -56q-134 0 -246 61.5t-179 174.5 t-67 254zM281 928q0 -132 91 -224t236 -92t236.5 92.5t91.5 223.5t-91 222t-237 91t-236.5 -91t-90.5 -222z" />
<glyph unicode=":" horiz-adv-x="489" d="M125 0v238h240v-238h-240zM125 788v238h240v-238h-240z" />
<glyph unicode=";" horiz-adv-x="489" d="M125 788v238h240v-238h-240zM127 0v236h238v-207l-109 -330h-119l99 301h-109z" />
<glyph unicode="&#x3c;" d="M113 543v155l952 406v-168l-758 -315l758 -316v-168z" />
<glyph unicode="=" d="M137 293v162h953v-162h-953zM137 782v164h953v-164h-953z" />
<glyph unicode="&#x3e;" d="M164 137v168l758 316l-758 315v168l952 -406v-155z" />
<glyph unicode="?" horiz-adv-x="929" d="M57 1116q22 82 70 147.5t134.5 109.5t197.5 44q171 0 283 -103.5t112 -262.5q0 -107 -45.5 -183.5t-120.5 -138.5l-96 -78q-62 -54 -82.5 -90.5t-20.5 -99.5v-23h-163q-13 43 -13 72q0 78 34 136.5t116 127.5l96 78q107 90 107 188q0 89 -60.5 145t-154.5 56 q-98 0 -159.5 -49t-80.5 -137zM287 0v244h243v-244h-243z" />
<glyph unicode="@" horiz-adv-x="1972" d="M82 543q0 201 70 373.5t192 293t292 188.5t365 68q188 0 351.5 -62t280 -170t183 -259t66.5 -324q0 -112 -24.5 -207.5t-64.5 -161.5t-92.5 -113t-108 -69t-111.5 -22q-94 0 -155 40t-83 113q-55 -71 -135.5 -112t-179.5 -41q-181 0 -302.5 130.5t-121.5 328.5 q0 201 121 330.5t301 129.5q89 0 163.5 -35t122.5 -96v117h174v-618q0 -58 26.5 -89.5t74.5 -31.5q39 0 78 23.5t73 70t55 126.5t21 181q0 142 -53 265.5t-146.5 212t-226.5 139.5t-287 51q-159 0 -298 -57t-239.5 -157t-158 -244t-57.5 -312q0 -134 37 -252t105 -207.5 t161 -154.5t207.5 -98.5t242.5 -33.5q188 0 342 82l66 -139q-187 -96 -408 -96q-192 0 -360.5 63.5t-292 178t-195 284.5t-71.5 373zM686 539q0 -130 76.5 -212.5t191.5 -82.5q88 0 157.5 42.5t100.5 112.5v277q-31 70 -100.5 112.5t-157.5 42.5q-116 0 -192 -81t-76 -211z " />
<glyph unicode="A" horiz-adv-x="1366" d="M14 0l564 1393h213l561 -1393h-199l-135 336h-672l-133 -336h-199zM414 504h538l-268 676z" />
<glyph unicode="B" horiz-adv-x="1347" d="M176 0v1393h537q214 0 331 -98t117 -271q0 -91 -44 -165t-126 -120q129 -36 204 -121.5t75 -226.5q0 -183 -126 -287t-362 -104h-606zM365 164h409q152 0 226.5 60.5t74.5 172.5q0 113 -74.5 174.5t-226.5 61.5h-409v-469zM365 795h325q277 0 277 217t-277 217h-325v-434 z" />
<glyph unicode="C" horiz-adv-x="1462" d="M86 696q0 150 52.5 283.5t144 229.5t221.5 152t280 56q207 0 368 -96.5t251 -263.5l-148 -101q-69 132 -188 207.5t-281 75.5q-225 0 -365 -154.5t-140 -388.5t140 -388t365 -154q162 0 281.5 75t187.5 207l148 -100q-90 -167 -251 -264t-368 -97q-150 0 -280 56 t-221.5 152t-144 229.5t-52.5 283.5z" />
<glyph unicode="D" horiz-adv-x="1478" d="M176 0v1393h533q196 0 348 -79.5t242 -239t90 -378.5q0 -165 -51.5 -297.5t-143 -219.5t-215.5 -133t-270 -46h-533zM365 168h331q230 0 364 136.5t134 391.5t-134 392t-364 137h-331v-1057z" />
<glyph unicode="E" horiz-adv-x="1218" d="M176 0v1393h944v-168h-755v-439h661v-168h-661v-450h755v-168h-944z" />
<glyph unicode="F" horiz-adv-x="1157" d="M176 0v1393h922v-168h-733v-445h659v-168h-659v-612h-189z" />
<glyph unicode="G" horiz-adv-x="1501" d="M86 696q0 150 52.5 283.5t144.5 229.5t222.5 152t280.5 56q202 0 357.5 -89t247.5 -247l-142 -104q-71 124 -187.5 193t-273.5 69q-149 0 -265.5 -71.5t-179 -195t-62.5 -276.5q0 -234 142 -388t370 -154q119 0 229 34.5t178 92.5v311h-356v168h545v-576 q-113 -93 -272.5 -151t-325.5 -58q-201 0 -363 95t-252 260t-90 366z" />
<glyph unicode="H" horiz-adv-x="1529" d="M176 0v1393h189v-607h800v607h189v-1393h-189v618h-800v-618h-189z" />
<glyph unicode="I" horiz-adv-x="540" d="M176 0v1393h189v-1393h-189z" />
<glyph unicode="J" horiz-adv-x="1118" d="M14 238l142 108q100 -192 293 -192q157 0 238 97.5t81 287.5v854h188v-861q0 -258 -133.5 -407.5t-369.5 -149.5q-151 0 -263.5 76t-175.5 187z" />
<glyph unicode="K" horiz-adv-x="1298" d="M176 0v1393h189v-723l669 723h234v-9l-543 -581l569 -797v-6h-227l-473 664l-229 -248v-416h-189z" />
<glyph unicode="L" horiz-adv-x="1118" d="M176 0v1393h189v-1225h716v-168h-905z" />
<glyph unicode="M" horiz-adv-x="1843" d="M176 0v1393h252l494 -1151l493 1151h252v-1393h-188v1102l-471 -1102h-172l-471 1102v-1102h-189z" />
<glyph unicode="N" horiz-adv-x="1558" d="M176 0v1393h166l852 -1078v1078h188v-1393h-165l-852 1077v-1077h-189z" />
<glyph unicode="O" horiz-adv-x="1568" d="M86 696q0 150 52.5 283.5t144 229.5t221.5 152t280 56q199 0 359.5 -95t250 -260t89.5 -366t-89.5 -366t-250 -260t-359.5 -95q-150 0 -280 56t-221.5 152t-144 229.5t-52.5 283.5zM281 696q0 -234 139 -388t364 -154t364.5 154t139.5 388t-139.5 388.5t-364.5 154.5 t-364 -154.5t-139 -388.5z" />
<glyph unicode="P" horiz-adv-x="1243" d="M176 0v1393h533q224 0 349.5 -109t125.5 -311q0 -200 -125.5 -308t-349.5 -108h-344v-557h-189zM365 725h321q303 0 303 248q0 252 -303 252h-321v-500z" />
<glyph unicode="Q" horiz-adv-x="1568" d="M86 696q0 150 52.5 283.5t144 229.5t221.5 152t280 56q199 0 359.5 -95t250 -260t89.5 -366q0 -178 -71.5 -328.5t-199.5 -248.5l263 -355l-154 -102l-264 367q-127 -54 -273 -54q-150 0 -280 56t-221.5 152t-144 229.5t-52.5 283.5zM281 696q0 -234 139 -388t364 -154 t364.5 154t139.5 388t-139.5 388.5t-364.5 154.5t-364 -154.5t-139 -388.5z" />
<glyph unicode="R" horiz-adv-x="1359" d="M176 0v1393h578q206 0 331 -107.5t125 -292.5q0 -156 -88 -256.5t-243 -130.5l481 -600v-6h-230l-462 594h-303v-594h-189zM365 762h370q139 0 210 59t71 172q0 111 -71.5 171.5t-209.5 60.5h-370v-463z" />
<glyph unicode="S" horiz-adv-x="1208" d="M37 299l135 121q43 -74 98.5 -130t145 -96t196.5 -40q153 0 238.5 72t85.5 180q0 182 -272 225l-134 20q-178 28 -282.5 125.5t-104.5 247.5q0 79 33 150.5t93 125.5t151.5 85.5t202.5 31.5q154 0 277 -62.5t194 -168.5l-131 -123q-128 176 -342 176q-128 0 -205.5 -59 t-77.5 -144q0 -81 58.5 -132t162.5 -66l135 -21q209 -33 322.5 -134.5t113.5 -268.5q0 -191 -143 -315t-377 -124q-89 0 -168.5 19t-139 49.5t-111.5 74.5t-88 87.5t-66 93.5z" />
<glyph unicode="T" horiz-adv-x="1142" d="M37 1225v168h1069v-168h-440v-1225h-189v1225h-440z" />
<glyph unicode="U" horiz-adv-x="1458" d="M160 586v807h188v-791q0 -212 96.5 -330t284.5 -118q187 0 284 118.5t97 329.5v791h188v-807q0 -275 -150.5 -443t-418.5 -168t-418.5 168t-150.5 443z" />
<glyph unicode="V" horiz-adv-x="1353" d="M16 1393h199l463 -1174l461 1174h198l-553 -1393h-213z" />
<glyph unicode="W" horiz-adv-x="2025" d="M27 1393h194l322 -1133l368 1133h203l369 -1133l321 1133h195l-410 -1393h-205l-372 1126l-371 -1126h-203z" />
<glyph unicode="X" horiz-adv-x="1298" d="M-4 0v6l528 725l-473 655v7h225l373 -523l373 523h225v-7l-473 -655l529 -725v-6h-226l-428 594l-428 -594h-225z" />
<glyph unicode="Y" horiz-adv-x="1286" d="M18 1386v7h222l403 -609l404 609h219v-7l-529 -790v-596h-188v596z" />
<glyph unicode="Z" horiz-adv-x="1159" d="M61 0v147l764 1078h-729v168h977v-148l-768 -1077h785v-168h-1029z" />
<glyph unicode="[" horiz-adv-x="608" d="M162 -340v1733h389v-146h-223v-1442h223v-145h-389z" />
<glyph unicode="\" horiz-adv-x="876" d="M51 1393h174l600 -1393h-174z" />
<glyph unicode="]" horiz-adv-x="608" d="M57 -195h224v1442h-224v146h389v-1733h-389v145z" />
<glyph unicode="^" d="M156 762v6l389 625h139l389 -625v-6h-174l-285 465l-284 -465h-174z" />
<glyph unicode="_" horiz-adv-x="1024" d="M0 -106h1024v-148h-1024v148z" />
<glyph unicode="`" d="M526 1495v6h191l147 -307v-6h-159z" />
<glyph unicode="a" horiz-adv-x="1255" d="M78 514q0 236 142 385.5t360 149.5q107 0 198 -45t152 -123v145h184v-1026h-184v145q-61 -78 -152 -123t-198 -45q-218 0 -360 149.5t-142 387.5zM266 514q0 -168 98.5 -268.5t247.5 -100.5q106 0 192 51.5t126 137.5v356q-40 87 -126 139t-192 52q-149 0 -247.5 -100.5 t-98.5 -266.5z" />
<glyph unicode="b" horiz-adv-x="1255" d="M141 0v1454h185v-573q61 78 152 123t198 45q218 0 360 -149.5t142 -385.5q0 -238 -142 -387.5t-360 -149.5q-107 0 -198 45t-152 123v-145h-185zM326 338q40 -87 125.5 -140t191.5 -53q149 0 247.5 100t98.5 269q0 168 -98.5 267.5t-247.5 99.5q-106 0 -191.5 -53 t-125.5 -142v-348z" />
<glyph unicode="c" horiz-adv-x="1114" d="M78 514q0 148 63.5 269t184.5 193.5t276 72.5q150 0 266.5 -68.5t186.5 -192.5l-137 -96q-47 88 -128 138.5t-182 50.5q-150 0 -246 -100.5t-96 -266.5q0 -168 96 -268.5t246 -100.5q101 0 182 50.5t128 138.5l137 -96q-70 -124 -186.5 -192.5t-266.5 -68.5 q-156 0 -276.5 72.5t-184 194t-63.5 270.5z" />
<glyph unicode="d" horiz-adv-x="1255" d="M78 514q0 236 142 385.5t360 149.5q107 0 198 -45t152 -123v573h184v-1454h-184v145q-61 -78 -152 -123t-198 -45q-218 0 -360 149.5t-142 387.5zM266 514q0 -169 98.5 -269t247.5 -100q106 0 192 53t126 140v348q-40 89 -126 142t-192 53q-149 0 -247.5 -99.5 t-98.5 -267.5z" />
<glyph unicode="e" horiz-adv-x="1146" d="M80 512q0 237 141.5 387t364.5 150q218 0 354.5 -143.5t136.5 -360.5q0 -38 -8 -96h-803q18 -142 107 -225t235 -83q100 0 189.5 49.5t144.5 131.5l113 -117q-80 -107 -196 -168.5t-259 -61.5q-153 0 -272.5 70.5t-183.5 192.5t-64 274zM268 602h623q-9 130 -94 207.5 t-211 77.5q-127 0 -211.5 -75.5t-106.5 -209.5z" />
<glyph unicode="f" horiz-adv-x="665" d="M51 874v152h172v113q0 147 86.5 237t247.5 90q54 0 74 -2v-153h-31q-99 0 -145.5 -42t-46.5 -132v-111h223v-152h-223v-874h-185v874h-172z" />
<glyph unicode="g" horiz-adv-x="1220" d="M80 549q0 223 132 361.5t347 138.5q207 0 336 -162v139h184v-891q0 -103 -27.5 -191t-75 -150.5t-112 -106.5t-139.5 -65t-156 -21q-164 0 -282 60.5t-185 168.5l121 113q116 -174 340 -174q92 0 165.5 37t120 119t46.5 198v84q-127 -160 -336 -160q-215 0 -347 138.5 t-132 363.5zM268 549q0 -149 91 -241.5t237 -92.5q100 0 179.5 49t119.5 133v301q-40 84 -119.5 133.5t-179.5 49.5q-146 0 -237 -92t-91 -240z" />
<glyph unicode="h" horiz-adv-x="1202" d="M141 0v1454h185v-588q45 77 132 130t206 53q197 0 302 -119.5t105 -331.5v-598h-184v580q0 147 -71 224t-202 77q-62 0 -115 -21t-87.5 -54t-56 -68t-29.5 -68v-670h-185z" />
<glyph unicode="i" horiz-adv-x="466" d="M133 1260v221h199v-221h-199zM141 0v1026h185v-1026h-185z" />
<glyph unicode="j" horiz-adv-x="466" d="M-23 -270q86 66 125 135.5t39 175.5v985h185v-991q0 -161 -61.5 -264t-178.5 -174zM133 1260v221h199v-221h-199z" />
<glyph unicode="k" horiz-adv-x="1062" d="M141 0v1454h185v-913l479 485h217v-8l-410 -418l467 -594v-6h-221l-366 477l-166 -170v-307h-185z" />
<glyph unicode="l" horiz-adv-x="466" d="M141 0v1454h185v-1454h-185z" />
<glyph unicode="m" horiz-adv-x="1927" d="M141 0v1026h185v-156q45 77 129.5 128t203.5 51q262 0 355 -209q53 96 151.5 152.5t229.5 56.5q195 0 298 -119t103 -332v-598h-184v580q0 147 -69 224t-200 77q-108 0 -181.5 -60t-100.5 -151v-52v-20v-598h-184v580q0 147 -69 224t-200 77q-109 0 -183 -60.5 t-99 -150.5v-670h-185z" />
<glyph unicode="n" horiz-adv-x="1202" d="M141 0v1026h185v-156q45 76 131.5 127.5t206.5 51.5q197 0 302 -119.5t105 -331.5v-598h-184v580q0 147 -71 224t-202 77q-110 0 -186.5 -60.5t-101.5 -150.5v-670h-185z" />
<glyph unicode="o" horiz-adv-x="1212" d="M78 512q0 149 62.5 270.5t184 194t281.5 72.5t281.5 -72.5t184.5 -194t63 -270.5q0 -148 -63 -269.5t-184.5 -194.5t-281.5 -73q-159 0 -281 73t-184.5 194.5t-62.5 269.5zM266 512q0 -165 97 -267t243 -102t243 102t97 267t-97 267t-243 102t-243 -102t-97 -267z" />
<glyph unicode="p" horiz-adv-x="1253" d="M141 -377v1403h185v-145q62 79 151.5 123.5t196.5 44.5q218 0 360 -149.5t142 -385.5q0 -238 -142 -387.5t-360 -149.5q-107 0 -196.5 44t-151.5 122v-520h-185zM326 334q40 -86 124.5 -137.5t190.5 -51.5q149 0 247.5 100t98.5 269q0 168 -98.5 267.5t-247.5 99.5 q-106 0 -190.5 -51.5t-124.5 -137.5v-358z" />
<glyph unicode="q" horiz-adv-x="1253" d="M78 514q0 236 142 385.5t360 149.5q107 0 196.5 -44.5t151.5 -123.5v145h184v-1403h-184v520q-62 -78 -151.5 -122t-196.5 -44q-218 0 -360 149.5t-142 387.5zM266 514q0 -169 98.5 -269t247.5 -100q106 0 191 51.5t125 137.5v358q-40 86 -125 137.5t-191 51.5 q-149 0 -247.5 -99.5t-98.5 -267.5z" />
<glyph unicode="r" horiz-adv-x="702" d="M141 0v1026h185v-176q46 90 128 144.5t195 54.5h23v-179q-269 -6 -346 -231v-639h-185z" />
<glyph unicode="s" horiz-adv-x="966" d="M39 190l119 125q50 -74 135 -123t182 -49q104 0 171 41.5t67 118.5q0 117 -203 146l-90 14q-142 23 -221.5 94.5t-79.5 190.5q0 128 101 214.5t280 86.5q114 0 206 -45t152 -121l-115 -125q-104 123 -247 123q-91 0 -140 -37t-49 -92q0 -96 152 -119l92 -15 q169 -25 259.5 -103.5t90.5 -207.5q0 -142 -117 -237t-313 -95q-139 0 -250 60.5t-182 154.5z" />
<glyph unicode="t" horiz-adv-x="702" d="M35 874v152h182v266h180v-266h252v-152h-252v-520q0 -112 51.5 -158t167.5 -46h33v-152q-46 -8 -82 -8q-177 0 -265.5 90t-88.5 280v514h-178z" />
<glyph unicode="u" horiz-adv-x="1202" d="M131 428v598h184v-580q0 -147 71 -224t202 -77q110 0 187 60.5t102 150.5v670h184v-1026h-184v156q-45 -76 -131.5 -127.5t-206.5 -51.5q-197 0 -302.5 119.5t-105.5 331.5z" />
<glyph unicode="v" horiz-adv-x="1087" d="M25 1026h196l322 -793l323 793h197l-430 -1026h-178z" />
<glyph unicode="w" horiz-adv-x="1681" d="M27 1026h194l248 -776l279 776h186l278 -776l248 776h195l-344 -1026h-178l-291 795l-293 -795h-178z" />
<glyph unicode="x" horiz-adv-x="1042" d="M20 0v6l377 518l-356 494v8h209l270 -381l271 381h210v-8l-356 -494l377 -518v-6h-211l-291 406l-289 -406h-211z" />
<glyph unicode="y" horiz-adv-x="1064" d="M25 1026h196l326 -704l305 704h197l-621 -1403h-197l222 494z" />
<glyph unicode="z" horiz-adv-x="962" d="M55 0v135l590 739h-549v152h787v-135l-592 -739h606v-152h-842z" />
<glyph unicode="{" horiz-adv-x="684" d="M25 455v143h106q47 0 78 31t31 78v409q0 138 75.5 210.5t206.5 72.5q68 0 105 -6v-144h-74q-73 0 -111.5 -34.5t-38.5 -118.5v-383q0 -160 -133 -187q133 -27 133 -186v-383q0 -85 38.5 -119.5t111.5 -34.5h74v-143q-37 -6 -105 -6q-131 0 -206.5 72.5t-75.5 210.5v409 q0 47 -31 78t-78 31h-106z" />
<glyph unicode="|" horiz-adv-x="477" d="M162 -340v1794h153v-1794h-153z" />
<glyph unicode="}" horiz-adv-x="684" d="M57 -197h74q73 0 111.5 34.5t38.5 119.5v383q0 159 133 186q-133 27 -133 187v383q0 84 -38.5 118.5t-111.5 34.5h-74v144q37 6 105 6q131 0 206.5 -72.5t75.5 -210.5v-409q0 -47 31 -78t78 -31h106v-143h-106q-47 0 -78 -31t-31 -78v-409q0 -138 -75.5 -210.5 t-206.5 -72.5q-68 0 -105 6v143z" />
<glyph unicode="~" d="M141 500v164q122 84 246 84q89 0 241.5 -47.5t213.5 -47.5q114 0 245 86h7v-161q-117 -86 -246 -86q-85 0 -238 47t-215 47q-118 0 -248 -86h-6z" />
<glyph unicode="&#xa1;" horiz-adv-x="481" d="M119 782v244h243v-244h-243zM141 -367l41 955h117l39 -955h-197z" />
<glyph unicode="&#xa2;" d="M133 700q0 203 119 351t317 178v205h179v-205q118 -18 210.5 -84t151.5 -170l-137 -96q-78 144 -225 178v-715q147 34 225 178l137 -96q-59 -104 -151.5 -170t-210.5 -84v-211h-179v211q-198 30 -317 178t-119 352zM322 700q0 -139 67.5 -233.5t179.5 -122.5v711 q-112 -28 -179.5 -122t-67.5 -233z" />
<glyph unicode="&#xa3;" d="M147 586v166h138q-47 122 -47 256q0 180 120.5 294.5t319.5 114.5q140 0 248 -72.5t172 -205.5l-144 -101q-101 201 -276 201q-107 0 -177.5 -68t-70.5 -180q0 -100 53 -235h426v-164h-370q14 -65 14 -117q0 -94 -34 -166t-91 -141h645v-168h-872v147q45 49 68 77t48 69 t35 85t10 99q0 46 -18 109h-197z" />
<glyph unicode="&#xa4;" d="M141 256l146 145q-62 94 -62 217q0 121 62 218l-146 145l111 109l145 -146q91 57 217 57q121 0 215 -57l146 146l110 -109l-145 -145q64 -92 64 -218q0 -124 -64 -219l145 -143l-110 -109l-146 146q-94 -57 -215 -57q-126 0 -217 57l-145 -146zM387 618q0 -101 63.5 -166 t161.5 -65q100 0 164 65t64 166t-64 166.5t-164 65.5q-98 0 -161.5 -65.5t-63.5 -166.5z" />
<glyph unicode="&#xa5;" d="M68 1386v7h217l327 -549l332 549h215v-7l-414 -663h271v-162h-307v-151h307v-162h-307v-248h-189v248h-311v162h311v151h-311v162h274z" />
<glyph unicode="&#xa6;" horiz-adv-x="473" d="M160 -340v750h153v-750h-153zM160 707v747h153v-747h-153z" />
<glyph unicode="&#xa7;" horiz-adv-x="1126" d="M84 -39l125 113q52 -96 140 -157.5t214 -61.5q123 0 191.5 54.5t68.5 137.5q0 139 -239 178l-121 19q-165 24 -263 109.5t-98 217.5q0 156 144 269q-105 91 -105 239q0 142 114 240t306 98q143 0 257 -56t177 -151l-118 -112q-117 155 -310 155q-110 0 -175.5 -49 t-65.5 -123q0 -70 47 -112.5t131 -53.5l125 -18q196 -28 304.5 -117.5t108.5 -230.5q0 -163 -137 -270q103 -89 103 -224q0 -161 -123 -262.5t-324 -101.5q-91 0 -169.5 23.5t-136 64t-98.5 85t-73 97.5zM287 586q0 -69 55 -113.5t152 -58.5l122 -19q75 -12 136 -33 q106 65 106 177q0 73 -66 118.5t-196 67.5l-121 20q-20 3 -74 17q-114 -66 -114 -176z" />
<glyph unicode="&#xa8;" d="M283 1237v213h217v-213h-217zM748 1237v213h217v-213h-217z" />
<glyph unicode="&#xa9;" horiz-adv-x="1728" d="M84 696q0 162 60.5 306t164 248t248.5 164.5t307 60.5t307 -60.5t249 -164t164.5 -248t60.5 -306.5q0 -216 -103 -394.5t-282 -281t-396 -102.5q-162 0 -307 60.5t-248.5 164t-164 247.5t-60.5 306zM236 696q0 -132 48.5 -249.5t131.5 -201.5t200 -133t248 -49 q175 0 319.5 83t227 228.5t82.5 321.5t-82.5 321.5t-227 228.5t-319.5 83q-131 0 -248 -49t-200 -133t-131.5 -201.5t-48.5 -249.5zM479 696q0 165 107.5 279.5t281.5 114.5q114 0 200 -50.5t138 -142.5l-110 -82q-78 135 -222 135q-108 0 -172.5 -71.5t-64.5 -182.5 t64.5 -181.5t172.5 -70.5q74 0 130.5 36.5t91.5 99.5l110 -84q-53 -90 -138.5 -140.5t-199.5 -50.5q-174 0 -281.5 114t-107.5 277z" />
<glyph unicode="&#xaa;" horiz-adv-x="706" d="M94 1016q0 77 59.5 123.5t151.5 46.5q80 0 150 -41v31q0 56 -30.5 89t-94.5 33q-39 0 -72.5 -19t-50.5 -54l-94 65q28 54 86.5 88.5t138.5 34.5q119 0 182.5 -65t63.5 -183v-303h-125v53q-76 -67 -172 -67q-91 0 -142 47t-51 121zM225 1020q0 -32 25 -52t69 -20 q79 0 136 51v58q-60 37 -129 37q-50 0 -75.5 -20.5t-25.5 -53.5z" />
<glyph unicode="&#xab;" horiz-adv-x="1128" d="M70 588v57l336 371h182v-6l-336 -394l336 -393v-6h-182zM524 588v57l336 371h182v-6l-335 -394l335 -393v-6h-182z" />
<glyph unicode="&#xac;" d="M133 604v164h952v-442h-161v278h-791z" />
<glyph unicode="&#xad;" horiz-adv-x="833" d="M125 545v151h584v-151h-584z" />
<glyph unicode="&#xae;" horiz-adv-x="1003" d="M84 1001q0 177 120 296.5t298 119.5t298 -119.5t120 -296.5t-120 -296t-298 -119t-298 119t-120 296zM193 1001q0 -132 88 -220.5t221 -88.5t221 88.5t88 220.5t-88 221t-221 89t-221 -89t-88 -221zM350 805v395h180q60 0 99 -34.5t39 -94.5q0 -83 -78 -113l112 -147v-6 h-118l-97 143h-34v-143h-103zM455 1034h69q18 0 29.5 11t11.5 26q0 39 -41 39h-69v-76z" />
<glyph unicode="&#xaf;" d="M236 1272v141h665v-141h-665z" />
<glyph unicode="&#xb0;" horiz-adv-x="770" d="M82 1120q0 128 86.5 212.5t216.5 84.5t216.5 -84.5t86.5 -212.5t-86.5 -212.5t-216.5 -84.5t-216.5 84.5t-86.5 212.5zM225 1120q0 -68 45 -113.5t115 -45.5t115 45.5t45 113.5t-45 114t-115 46t-115 -46t-45 -114z" />
<glyph unicode="&#xb1;" d="M137 121v162h953v-162h-953zM137 750v163h395v363h162v-363h396v-163h-396v-318h-162v318h-395z" />
<glyph unicode="&#xb4;" d="M393 1188v6l148 307h190v-6l-178 -307h-160z" />
<glyph unicode="&#xb5;" horiz-adv-x="1212" d="M141 -377v1403h185v-577q0 -148 70.5 -226t201.5 -78q110 0 186 61t103 150v670h184v-1026h-184v156q-43 -75 -129 -127t-203 -52q-142 0 -229 78v-432h-185z" />
<glyph unicode="&#xb6;" horiz-adv-x="1153" d="M57 1044q0 165 96.5 256t254.5 93h239v-1733h-143v1036h-96q-158 0 -254.5 91.5t-96.5 256.5zM821 -340v1733h144v-1733h-144z" />
<glyph unicode="&#xb7;" horiz-adv-x="493" d="M125 496v243h244v-243h-244z" />
<glyph unicode="&#xb8;" d="M367 -317l41 112q56 -35 112 -35q51 0 78 23.5t27 64.5q0 59 -64.5 105t-163.5 47l228 16q65 -30 103 -83t38 -117q0 -81 -60 -132t-163 -51q-96 0 -176 50z" />
<glyph unicode="&#xba;" horiz-adv-x="749" d="M84 1130q0 117 77.5 200t213.5 83t213.5 -83t77.5 -200q0 -119 -77 -200.5t-214 -81.5t-214 81.5t-77 200.5zM219 1130q0 -73 44 -117t112 -44t111.5 44t43.5 117t-43.5 117.5t-111.5 44.5t-112 -44.5t-44 -117.5z" />
<glyph unicode="&#xbb;" horiz-adv-x="1128" d="M86 219v6l336 393l-336 394v6h182l336 -371v-57l-336 -371h-182zM541 219v6l336 393l-336 394v6h182l336 -371v-57l-336 -371h-182z" />
<glyph unicode="&#xbc;" horiz-adv-x="1476" d="M55 1255l254 138h107v-731h-146v567l-161 -86zM270 0l723 1393h156l-721 -1393h-158zM768 178v107l334 446h180v-442h125v-111h-125v-178h-145v178h-369zM922 289h215v289z" />
<glyph unicode="&#xbd;" horiz-adv-x="1552" d="M55 1255l254 138h107v-731h-146v567l-161 -86zM285 0l723 1393h155l-721 -1393h-157zM936 0v109q26 47 75 92.5t99 80t97 68.5t76.5 72t29.5 78q0 51 -32.5 80.5t-94.5 29.5q-99 0 -135 -116l-113 63q25 77 87 132.5t165 55.5q124 0 196 -68t72 -171q0 -60 -26.5 -111.5 t-68 -88t-84 -65.5t-84.5 -59t-60 -53h335v-129h-534z" />
<glyph unicode="&#xbe;" horiz-adv-x="1585" d="M59 768l86 102q77 -90 193 -90q69 0 111.5 27.5t42.5 77.5q0 96 -156 96h-76v117h76q57 0 86 24.5t29 61.5q0 43 -32 65.5t-85 22.5q-97 0 -152 -74l-86 92q40 51 103.5 84t140.5 33q123 0 192.5 -54t69.5 -149q0 -44 -27.5 -85.5t-74.5 -67.5q68 -20 104.5 -68 t36.5 -113q0 -102 -87 -162.5t-218 -60.5q-165 0 -277 121zM391 0l723 1393h156l-721 -1393h-158zM885 178v107l334 446h180v-442h125v-111h-125v-178h-146v178h-368zM1038 289h215v289z" />
<glyph unicode="&#xbf;" horiz-adv-x="915" d="M66 -25q0 108 45.5 184t119.5 138l97 78q62 54 82 90.5t20 99.5v23h164q12 -40 12 -72q0 -78 -34 -136.5t-115 -127.5l-97 -78q-106 -89 -106 -188q0 -89 60.5 -145t154.5 -56q98 0 159.5 49t80.5 137l153 -61q-16 -61 -48 -113.5t-80 -95.5t-118.5 -67.5t-154.5 -24.5 q-171 0 -283 103.5t-112 262.5zM389 782v244h244v-244h-244z" />
<glyph unicode="&#xc0;" horiz-adv-x="1366" d="M14 0l564 1393h213l561 -1393h-199l-135 336h-672l-133 -336h-199zM414 504h538l-268 676zM426 1837v6h190l148 -307v-6h-160z" />
<glyph unicode="&#xc1;" horiz-adv-x="1366" d="M14 0l564 1393h213l561 -1393h-199l-135 336h-672l-133 -336h-199zM414 504h538l-268 676zM604 1530v6l148 307h190v-6l-178 -307h-160z" />
<glyph unicode="&#xc2;" horiz-adv-x="1366" d="M14 0l564 1393h213l561 -1393h-199l-135 336h-672l-133 -336h-199zM342 1530v6l250 307h182l252 -307v-6h-172l-172 196l-168 -196h-172zM414 504h538l-268 676z" />
<glyph unicode="&#xc3;" horiz-adv-x="1366" d="M14 0l564 1393h213l561 -1393h-199l-135 336h-672l-133 -336h-199zM334 1602q31 95 87.5 144.5t131.5 49.5q47 0 90 -16t69 -36t57 -36t58 -16q36 0 60 26t45 76l119 -63q-63 -185 -220 -185q-46 0 -89 16.5t-69 37t-57.5 37t-58.5 16.5q-62 0 -102 -105zM414 504h538 l-268 676z" />
<glyph unicode="&#xc4;" horiz-adv-x="1366" d="M14 0l564 1393h213l561 -1393h-199l-135 336h-672l-133 -336h-199zM342 1579v213h217v-213h-217zM414 504h538l-268 676zM807 1579v213h217v-213h-217z" />
<glyph unicode="&#xc5;" horiz-adv-x="1366" d="M14 0l547 1352q-100 64 -100 184q0 94 66.5 156.5t162.5 62.5q98 0 165 -62.5t67 -156.5q0 -62 -30.5 -112t-82.5 -78l543 -1346h-199l-135 336h-672l-133 -336h-199zM414 504h538l-268 676zM575 1536q0 -47 33 -79t82 -32q47 0 80 32t33 79t-33 79t-80 32q-49 0 -82 -32 t-33 -79z" />
<glyph unicode="&#xc6;" horiz-adv-x="1906" d="M-29 0v6l860 1387h977v-168h-714v-439h620v-168h-620v-450h714v-168h-903v326h-522l-197 -326h-215zM483 494h422v698z" />
<glyph unicode="&#xc7;" horiz-adv-x="1462" d="M86 696q0 150 52.5 283.5t144 229.5t221.5 152t280 56q207 0 368 -96.5t251 -263.5l-148 -101q-69 132 -188 207.5t-281 75.5q-225 0 -365 -154.5t-140 -388.5t140 -388t365 -154q162 0 281.5 75t187.5 207l148 -100q-77 -142 -207 -235t-297 -117q94 -72 94 -183 q0 -92 -65 -145t-174 -53q-107 0 -183 51l43 129q60 -37 117 -37q51 0 79 25t28 67t-32.5 80.5t-88.5 61.5q-183 15 -327 112.5t-224 255.5t-80 348z" />
<glyph unicode="&#xc8;" horiz-adv-x="1218" d="M176 0v1393h944v-168h-755v-439h661v-168h-661v-450h755v-168h-944zM389 1837v6h191l147 -307v-6h-160z" />
<glyph unicode="&#xc9;" horiz-adv-x="1218" d="M176 0v1393h944v-168h-755v-439h661v-168h-661v-450h755v-168h-944zM567 1530v6l148 307h190v-6l-178 -307h-160z" />
<glyph unicode="&#xca;" horiz-adv-x="1218" d="M176 0v1393h944v-168h-755v-439h661v-168h-661v-450h755v-168h-944zM305 1530v6l250 307h182l252 -307v-6h-172l-172 196l-168 -196h-172z" />
<glyph unicode="&#xcb;" horiz-adv-x="1218" d="M176 0v1393h944v-168h-755v-439h661v-168h-661v-450h755v-168h-944zM305 1579v213h217v-213h-217zM770 1579v213h217v-213h-217z" />
<glyph unicode="&#xcc;" horiz-adv-x="540" d="M12 1837v6h191l147 -307v-6h-160zM176 0v1393h189v-1393h-189z" />
<glyph unicode="&#xcd;" horiz-adv-x="540" d="M176 0v1393h189v-1393h-189zM190 1530v6l148 307h190v-6l-178 -307h-160z" />
<glyph unicode="&#xce;" horiz-adv-x="540" d="M-72 1530v6l250 307h182l252 -307v-6h-172l-172 196l-168 -196h-172zM176 0v1393h189v-1393h-189z" />
<glyph unicode="&#xcf;" horiz-adv-x="540" d="M-72 1579v213h217v-213h-217zM176 0v1393h189v-1393h-189zM393 1579v213h217v-213h-217z" />
<glyph unicode="&#xd0;" horiz-adv-x="1488" d="M35 621v163h151v609h533q196 0 348 -79.5t242 -239t90 -378.5q0 -165 -51.5 -297.5t-143 -219.5t-215.5 -133t-270 -46h-533v621h-151zM375 168h332q230 0 363.5 136.5t133.5 391.5t-133.5 392t-363.5 137h-332v-441h383v-163h-383v-453z" />
<glyph unicode="&#xd1;" horiz-adv-x="1558" d="M176 0v1393h166l852 -1078v1078h188v-1393h-165l-852 1077v-1077h-189zM430 1602q31 95 87.5 144.5t131.5 49.5q47 0 90 -16t69 -36t57.5 -36t58.5 -16q35 0 59 26t45 76l119 -63q-63 -185 -219 -185q-46 0 -89 16.5t-69.5 37t-58 37t-58.5 16.5q-62 0 -102 -105z" />
<glyph unicode="&#xd2;" horiz-adv-x="1568" d="M86 696q0 150 52.5 283.5t144 229.5t221.5 152t280 56q199 0 359.5 -95t250 -260t89.5 -366t-89.5 -366t-250 -260t-359.5 -95q-150 0 -280 56t-221.5 152t-144 229.5t-52.5 283.5zM281 696q0 -234 139 -388t364 -154t364.5 154t139.5 388t-139.5 388.5t-364.5 154.5 t-364 -154.5t-139 -388.5zM526 1837v6h191l147 -307v-6h-159z" />
<glyph unicode="&#xd3;" horiz-adv-x="1568" d="M86 696q0 150 52.5 283.5t144 229.5t221.5 152t280 56q199 0 359.5 -95t250 -260t89.5 -366t-89.5 -366t-250 -260t-359.5 -95q-150 0 -280 56t-221.5 152t-144 229.5t-52.5 283.5zM281 696q0 -234 139 -388t364 -154t364.5 154t139.5 388t-139.5 388.5t-364.5 154.5 t-364 -154.5t-139 -388.5zM705 1530v6l147 307h190v-6l-178 -307h-159z" />
<glyph unicode="&#xd4;" horiz-adv-x="1568" d="M86 696q0 150 52.5 283.5t144 229.5t221.5 152t280 56q199 0 359.5 -95t250 -260t89.5 -366t-89.5 -366t-250 -260t-359.5 -95q-150 0 -280 56t-221.5 152t-144 229.5t-52.5 283.5zM281 696q0 -234 139 -388t364 -154t364.5 154t139.5 388t-139.5 388.5t-364.5 154.5 t-364 -154.5t-139 -388.5zM442 1530v6l250 307h182l252 -307v-6h-172l-172 196l-168 -196h-172z" />
<glyph unicode="&#xd5;" horiz-adv-x="1568" d="M86 696q0 150 52.5 283.5t144 229.5t221.5 152t280 56q199 0 359.5 -95t250 -260t89.5 -366t-89.5 -366t-250 -260t-359.5 -95q-150 0 -280 56t-221.5 152t-144 229.5t-52.5 283.5zM281 696q0 -234 139 -388t364 -154t364.5 154t139.5 388t-139.5 388.5t-364.5 154.5 t-364 -154.5t-139 -388.5zM434 1602q31 95 87.5 144.5t131.5 49.5q47 0 90 -16t69 -36t57.5 -36t58.5 -16q35 0 59 26t45 76l119 -63q-63 -185 -219 -185q-46 0 -89 16.5t-69.5 37t-58 37t-58.5 16.5q-62 0 -102 -105z" />
<glyph unicode="&#xd6;" horiz-adv-x="1568" d="M86 696q0 150 52.5 283.5t144 229.5t221.5 152t280 56q199 0 359.5 -95t250 -260t89.5 -366t-89.5 -366t-250 -260t-359.5 -95q-150 0 -280 56t-221.5 152t-144 229.5t-52.5 283.5zM281 696q0 -234 139 -388t364 -154t364.5 154t139.5 388t-139.5 388.5t-364.5 154.5 t-364 -154.5t-139 -388.5zM442 1579v213h217v-213h-217zM907 1579v213h217v-213h-217z" />
<glyph unicode="&#xd7;" d="M205 328l295 290l-295 295l114 115l295 -295l293 295l117 -115l-295 -295l295 -290l-117 -117l-293 293l-295 -293z" />
<glyph unicode="&#xd8;" horiz-adv-x="1568" d="M86 696q0 150 52.5 283.5t144 229.5t221.5 152t280 56q145 0 277 -55l61 106h205v-6l-110 -192q126 -98 196 -247.5t70 -326.5q0 -201 -89.5 -366t-250 -260t-359.5 -95q-148 0 -282 56l-62 -107h-207v6l113 195q-123 99 -191.5 247.5t-68.5 323.5zM281 696 q0 -126 41 -231.5t118 -179.5l531 919q-84 35 -187 35q-225 0 -364 -154.5t-139 -388.5zM590 190q82 -36 194 -36q225 0 364.5 154t139.5 388q0 126 -44 234t-124 182z" />
<glyph unicode="&#xd9;" horiz-adv-x="1458" d="M160 586v807h188v-791q0 -212 96.5 -330t284.5 -118q187 0 284 118.5t97 329.5v791h188v-807q0 -275 -150.5 -443t-418.5 -168t-418.5 168t-150.5 443zM471 1837v6h191l147 -307v-6h-160z" />
<glyph unicode="&#xda;" horiz-adv-x="1458" d="M160 586v807h188v-791q0 -212 96.5 -330t284.5 -118q187 0 284 118.5t97 329.5v791h188v-807q0 -275 -150.5 -443t-418.5 -168t-418.5 168t-150.5 443zM649 1530v6l148 307h190v-6l-178 -307h-160z" />
<glyph unicode="&#xdb;" horiz-adv-x="1458" d="M160 586v807h188v-791q0 -212 96.5 -330t284.5 -118q187 0 284 118.5t97 329.5v791h188v-807q0 -275 -150.5 -443t-418.5 -168t-418.5 168t-150.5 443zM387 1530v6l250 307h182l252 -307v-6h-172l-172 196l-168 -196h-172z" />
<glyph unicode="&#xdc;" horiz-adv-x="1458" d="M160 586v807h188v-791q0 -212 96.5 -330t284.5 -118q187 0 284 118.5t97 329.5v791h188v-807q0 -275 -150.5 -443t-418.5 -168t-418.5 168t-150.5 443zM387 1579v213h217v-213h-217zM852 1579v213h217v-213h-217z" />
<glyph unicode="&#xdd;" horiz-adv-x="1286" d="M18 1386v7h222l403 -609l404 609h219v-7l-529 -790v-596h-188v596zM563 1530v6l148 307h190v-6l-178 -307h-160z" />
<glyph unicode="&#xde;" horiz-adv-x="1214" d="M176 0v1393h189v-269h313q224 0 350.5 -108.5t126.5 -310.5q0 -200 -126.5 -309t-350.5 -109h-313v-287h-189zM365 455h292q304 0 304 250q0 251 -304 251h-292v-501z" />
<glyph unicode="&#xdf;" horiz-adv-x="1226" d="M141 0v1049q0 195 115.5 310.5t314.5 115.5q193 0 309.5 -106.5t116.5 -258.5q0 -194 -157 -279q140 -42 225.5 -147.5t85.5 -259.5q0 -105 -38 -190.5t-103.5 -140.5t-151 -84t-182.5 -29q-88 0 -187 24l25 166q70 -23 137 -23q137 0 224.5 79.5t87.5 207.5 q0 129 -89 210t-219 81h-110v152h14q128 0 189 61t61 154t-63.5 154t-176.5 61t-178 -67.5t-65 -176.5v-1063h-185z" />
<glyph unicode="&#xe0;" horiz-adv-x="1255" d="M78 514q0 236 142 385.5t360 149.5q107 0 198 -45t152 -123v145h184v-1026h-184v145q-61 -78 -152 -123t-198 -45q-218 0 -360 149.5t-142 387.5zM266 514q0 -168 98.5 -268.5t247.5 -100.5q106 0 192 51.5t126 137.5v356q-40 87 -126 139t-192 52q-149 0 -247.5 -100.5 t-98.5 -266.5zM375 1495v6h190l148 -307v-6h-160z" />
<glyph unicode="&#xe1;" horiz-adv-x="1255" d="M78 514q0 236 142 385.5t360 149.5q107 0 198 -45t152 -123v145h184v-1026h-184v145q-61 -78 -152 -123t-198 -45q-218 0 -360 149.5t-142 387.5zM266 514q0 -168 98.5 -268.5t247.5 -100.5q106 0 192 51.5t126 137.5v356q-40 87 -126 139t-192 52q-149 0 -247.5 -100.5 t-98.5 -266.5zM553 1188v6l147 307h191v-6l-178 -307h-160z" />
<glyph unicode="&#xe2;" horiz-adv-x="1255" d="M78 514q0 236 142 385.5t360 149.5q107 0 198 -45t152 -123v145h184v-1026h-184v145q-61 -78 -152 -123t-198 -45q-218 0 -360 149.5t-142 387.5zM266 514q0 -168 98.5 -268.5t247.5 -100.5q106 0 192 51.5t126 137.5v356q-40 87 -126 139t-192 52q-149 0 -247.5 -100.5 t-98.5 -266.5zM291 1188v6l250 307h182l252 -307v-6h-172l-172 196l-168 -196h-172z" />
<glyph unicode="&#xe3;" horiz-adv-x="1255" d="M78 514q0 236 142 385.5t360 149.5q107 0 198 -45t152 -123v145h184v-1026h-184v145q-61 -78 -152 -123t-198 -45q-218 0 -360 149.5t-142 387.5zM266 514q0 -168 98.5 -268.5t247.5 -100.5q106 0 192 51.5t126 137.5v356q-40 87 -126 139t-192 52q-149 0 -247.5 -100.5 t-98.5 -266.5zM283 1260q31 95 87.5 144.5t131.5 49.5q47 0 90 -16t69 -36t57 -36t58 -16q36 0 60 26t45 76l118 -63q-63 -185 -219 -185q-46 0 -89 16.5t-69 37t-57.5 37t-58.5 16.5q-63 0 -103 -105z" />
<glyph unicode="&#xe4;" horiz-adv-x="1255" d="M78 514q0 236 142 385.5t360 149.5q107 0 198 -45t152 -123v145h184v-1026h-184v145q-61 -78 -152 -123t-198 -45q-218 0 -360 149.5t-142 387.5zM266 514q0 -168 98.5 -268.5t247.5 -100.5q106 0 192 51.5t126 137.5v356q-40 87 -126 139t-192 52q-149 0 -247.5 -100.5 t-98.5 -266.5zM291 1237v213h217v-213h-217zM756 1237v213h217v-213h-217z" />
<glyph unicode="&#xe5;" horiz-adv-x="1255" d="M78 514q0 236 142 385.5t360 149.5q107 0 198 -45t152 -123v145h184v-1026h-184v145q-61 -78 -152 -123t-198 -45q-218 0 -360 149.5t-142 387.5zM266 514q0 -168 98.5 -268.5t247.5 -100.5q106 0 192 51.5t126 137.5v356q-40 87 -126 139t-192 52q-149 0 -247.5 -100.5 t-98.5 -266.5zM403 1358q0 94 67 156.5t163 62.5q98 0 164.5 -62.5t66.5 -156.5t-66.5 -156.5t-164.5 -62.5q-96 0 -163 62.5t-67 156.5zM518 1358q0 -47 33 -79t82 -32q47 0 79.5 32t32.5 79t-32.5 78.5t-79.5 31.5q-49 0 -82 -31.5t-33 -78.5z" />
<glyph unicode="&#xe6;" horiz-adv-x="1816" d="M66 287q0 147 106.5 233t310.5 86h273v33q-5 106 -72 172t-197 66q-174 0 -290 -138l-88 140q83 83 173 124t216 41q130 0 222 -47t140 -135q141 187 393 187q145 0 258.5 -66.5t174.5 -181t61 -256.5q0 -52 -8 -92h-805q15 -144 105.5 -228t238.5 -84q100 0 188.5 49.5 t145.5 131.5l112 -117q-80 -107 -195.5 -168.5t-258.5 -61.5q-128 0 -230 46.5t-170 130.5q-177 -177 -426 -177q-168 0 -273 88.5t-105 223.5zM250 297q0 -67 56.5 -111.5t164.5 -44.5q185 0 320 152q-29 80 -35 160h-252q-254 0 -254 -156zM938 606h627q-12 127 -99 204 t-213 77q-125 0 -208.5 -74.5t-106.5 -206.5z" />
<glyph unicode="&#xe7;" horiz-adv-x="1114" d="M78 514q0 148 63.5 269t184.5 193.5t276 72.5q150 0 266.5 -68.5t186.5 -192.5l-137 -96q-47 88 -128 138.5t-182 50.5q-150 0 -246 -100.5t-96 -266.5q0 -168 96 -268.5t246 -100.5q101 0 182 50.5t128 138.5l137 -96q-122 -212 -355 -252q91 -68 91 -170 q0 -81 -60.5 -132t-163.5 -51q-96 0 -176 50l41 112q56 -35 113 -35q51 0 77.5 23.5t26.5 64.5q0 42 -33 79t-90 57q-31 2 -88 16q-167 51 -263.5 190t-96.5 324z" />
<glyph unicode="&#xe8;" horiz-adv-x="1146" d="M80 512q0 237 141.5 387t364.5 150q218 0 354.5 -143.5t136.5 -360.5q0 -38 -8 -96h-803q18 -142 107 -225t235 -83q100 0 189.5 49.5t144.5 131.5l113 -117q-80 -107 -196 -168.5t-259 -61.5q-153 0 -272.5 70.5t-183.5 192.5t-64 274zM268 602h623q-9 130 -94 207.5 t-211 77.5q-127 0 -211.5 -75.5t-106.5 -209.5zM328 1495v6h190l148 -307v-6h-160z" />
<glyph unicode="&#xe9;" horiz-adv-x="1146" d="M80 512q0 237 141.5 387t364.5 150q218 0 354.5 -143.5t136.5 -360.5q0 -38 -8 -96h-803q18 -142 107 -225t235 -83q100 0 189.5 49.5t144.5 131.5l113 -117q-80 -107 -196 -168.5t-259 -61.5q-153 0 -272.5 70.5t-183.5 192.5t-64 274zM268 602h623q-9 130 -94 207.5 t-211 77.5q-127 0 -211.5 -75.5t-106.5 -209.5zM506 1188v6l147 307h191v-6l-178 -307h-160z" />
<glyph unicode="&#xea;" horiz-adv-x="1146" d="M80 512q0 237 141.5 387t364.5 150q218 0 354.5 -143.5t136.5 -360.5q0 -38 -8 -96h-803q18 -142 107 -225t235 -83q100 0 189.5 49.5t144.5 131.5l113 -117q-80 -107 -196 -168.5t-259 -61.5q-153 0 -272.5 70.5t-183.5 192.5t-64 274zM244 1188v6l250 307h182l252 -307 v-6h-172l-172 196l-168 -196h-172zM268 602h623q-9 130 -94 207.5t-211 77.5q-127 0 -211.5 -75.5t-106.5 -209.5z" />
<glyph unicode="&#xeb;" horiz-adv-x="1146" d="M80 512q0 237 141.5 387t364.5 150q218 0 354.5 -143.5t136.5 -360.5q0 -38 -8 -96h-803q18 -142 107 -225t235 -83q100 0 189.5 49.5t144.5 131.5l113 -117q-80 -107 -196 -168.5t-259 -61.5q-153 0 -272.5 70.5t-183.5 192.5t-64 274zM244 1237v213h217v-213h-217z M268 602h623q-9 130 -94 207.5t-211 77.5q-127 0 -211.5 -75.5t-106.5 -209.5zM709 1237v213h217v-213h-217z" />
<glyph unicode="&#xec;" horiz-adv-x="466" d="M-25 1495v6h191l147 -307v-6h-159zM141 0v1026h185v-1026h-185z" />
<glyph unicode="&#xed;" horiz-adv-x="466" d="M141 0v1026h185v-1026h-185zM154 1188v6l147 307h191v-6l-179 -307h-159z" />
<glyph unicode="&#xee;" horiz-adv-x="466" d="M-109 1188v6l250 307h183l251 -307v-6h-172l-172 196l-168 -196h-172zM141 0v1026h185v-1026h-185z" />
<glyph unicode="&#xef;" horiz-adv-x="466" d="M-109 1237v213h218v-213h-218zM141 0v1026h185v-1026h-185zM356 1237v213h217v-213h-217z" />
<glyph unicode="&#xf0;" horiz-adv-x="1191" d="M80 494q0 143 63 258.5t168.5 179t229.5 63.5q189 0 307 -118q-73 152 -201 286l-272 -90l-39 123l207 70q-96 86 -228 182v6h232q89 -61 168 -131l246 82l36 -125l-180 -59q136 -152 213.5 -324.5t77.5 -343.5q0 -255 -140 -416.5t-374 -161.5q-154 0 -272.5 70.5 t-180 188t-61.5 260.5zM268 487q0 -155 92.5 -249.5t233.5 -94.5q143 0 234.5 109t91.5 301q0 39 -7 90q-58 100 -143.5 146.5t-181.5 46.5q-138 0 -229 -95.5t-91 -253.5z" />
<glyph unicode="&#xf1;" horiz-adv-x="1202" d="M141 0v1026h185v-156q45 76 131.5 127.5t206.5 51.5q197 0 302 -119.5t105 -331.5v-598h-184v580q0 147 -71 224t-202 77q-110 0 -186.5 -60.5t-101.5 -150.5v-670h-185zM252 1260q31 95 87.5 144.5t131.5 49.5q47 0 90 -16t69 -36t57 -36t58 -16q36 0 60 26t45 76 l119 -63q-63 -185 -219 -185q-46 0 -89 16.5t-69.5 37t-58 37t-58.5 16.5q-62 0 -102 -105z" />
<glyph unicode="&#xf2;" horiz-adv-x="1212" d="M78 512q0 149 62.5 270.5t184 194t281.5 72.5t281.5 -72.5t184.5 -194t63 -270.5q0 -148 -63 -269.5t-184.5 -194.5t-281.5 -73q-159 0 -281 73t-184.5 194.5t-62.5 269.5zM266 512q0 -165 97 -267t243 -102t243 102t97 267t-97 267t-243 102t-243 -102t-97 -267z M348 1495v6h191l147 -307v-6h-160z" />
<glyph unicode="&#xf3;" horiz-adv-x="1212" d="M78 512q0 149 62.5 270.5t184 194t281.5 72.5t281.5 -72.5t184.5 -194t63 -270.5q0 -148 -63 -269.5t-184.5 -194.5t-281.5 -73q-159 0 -281 73t-184.5 194.5t-62.5 269.5zM266 512q0 -165 97 -267t243 -102t243 102t97 267t-97 267t-243 102t-243 -102t-97 -267z M526 1188v6l148 307h190v-6l-178 -307h-160z" />
<glyph unicode="&#xf4;" horiz-adv-x="1212" d="M78 512q0 149 62.5 270.5t184 194t281.5 72.5t281.5 -72.5t184.5 -194t63 -270.5q0 -148 -63 -269.5t-184.5 -194.5t-281.5 -73q-159 0 -281 73t-184.5 194.5t-62.5 269.5zM264 1188v6l250 307h182l252 -307v-6h-172l-172 196l-168 -196h-172zM266 512q0 -165 97 -267 t243 -102t243 102t97 267t-97 267t-243 102t-243 -102t-97 -267z" />
<glyph unicode="&#xf5;" horiz-adv-x="1212" d="M78 512q0 149 62.5 270.5t184 194t281.5 72.5t281.5 -72.5t184.5 -194t63 -270.5q0 -148 -63 -269.5t-184.5 -194.5t-281.5 -73q-159 0 -281 73t-184.5 194.5t-62.5 269.5zM256 1260q31 95 87.5 144.5t131.5 49.5q47 0 90 -16t69 -36t57.5 -36t58.5 -16q35 0 59 26t45 76 l119 -63q-63 -185 -219 -185q-46 0 -89 16.5t-69.5 37t-58 37t-58.5 16.5q-62 0 -102 -105zM266 512q0 -165 97 -267t243 -102t243 102t97 267t-97 267t-243 102t-243 -102t-97 -267z" />
<glyph unicode="&#xf6;" horiz-adv-x="1212" d="M78 512q0 149 62.5 270.5t184 194t281.5 72.5t281.5 -72.5t184.5 -194t63 -270.5q0 -148 -63 -269.5t-184.5 -194.5t-281.5 -73q-159 0 -281 73t-184.5 194.5t-62.5 269.5zM264 1237v213h217v-213h-217zM266 512q0 -165 97 -267t243 -102t243 102t97 267t-97 267 t-243 102t-243 -102t-97 -267zM729 1237v213h217v-213h-217z" />
<glyph unicode="&#xf7;" d="M139 539v161h953v-161h-953zM506 121v225h225v-225h-225zM506 893v225h225v-225h-225z" />
<glyph unicode="&#xf8;" horiz-adv-x="1212" d="M78 512q0 149 62.5 270.5t184 194t281.5 72.5q107 0 197 -35l53 92h182v-6l-94 -164q91 -74 141 -184.5t50 -239.5q0 -148 -63 -269.5t-184.5 -194.5t-281.5 -73q-101 0 -198 33l-52 -90h-184v6l94 164q-90 73 -139 183.5t-49 240.5zM266 512q0 -162 92 -264l359 614 q-55 19 -111 19q-146 0 -243 -102t-97 -267zM494 160q59 -17 112 -17q146 0 243 102t97 267q0 161 -96 264z" />
<glyph unicode="&#xf9;" horiz-adv-x="1202" d="M131 428v598h184v-580q0 -147 71 -224t202 -77q110 0 187 60.5t102 150.5v670h184v-1026h-184v156q-45 -76 -131.5 -127.5t-206.5 -51.5q-197 0 -302.5 119.5t-105.5 331.5zM342 1495v6h190l148 -307v-6h-160z" />
<glyph unicode="&#xfa;" horiz-adv-x="1202" d="M131 428v598h184v-580q0 -147 71 -224t202 -77q110 0 187 60.5t102 150.5v670h184v-1026h-184v156q-45 -76 -131.5 -127.5t-206.5 -51.5q-197 0 -302.5 119.5t-105.5 331.5zM516 1188v6l148 307h190v-6l-178 -307h-160z" />
<glyph unicode="&#xfb;" horiz-adv-x="1202" d="M131 428v598h184v-580q0 -147 71 -224t202 -77q110 0 187 60.5t102 150.5v670h184v-1026h-184v156q-45 -76 -131.5 -127.5t-206.5 -51.5q-197 0 -302.5 119.5t-105.5 331.5zM258 1188v6l250 307h182l252 -307v-6h-172l-172 196l-168 -196h-172z" />
<glyph unicode="&#xfc;" horiz-adv-x="1202" d="M131 428v598h184v-580q0 -147 71 -224t202 -77q110 0 187 60.5t102 150.5v670h184v-1026h-184v156q-45 -76 -131.5 -127.5t-206.5 -51.5q-197 0 -302.5 119.5t-105.5 331.5zM254 1237v213h217v-213h-217zM719 1237v213h217v-213h-217z" />
<glyph unicode="&#xfd;" horiz-adv-x="1064" d="M25 1026h196l326 -704l305 704h197l-621 -1403h-197l222 494zM453 1188v6l147 307h191v-6l-179 -307h-159z" />
<glyph unicode="&#xfe;" horiz-adv-x="1253" d="M141 -377v1831h185v-573q62 79 151.5 123.5t196.5 44.5q218 0 360 -149.5t142 -385.5q0 -238 -142 -387.5t-360 -149.5q-107 0 -196.5 44t-151.5 122v-520h-185zM326 334q40 -86 124.5 -137.5t190.5 -51.5q149 0 247.5 100t98.5 269q0 168 -98.5 267.5t-247.5 99.5 q-106 0 -190.5 -51.5t-124.5 -137.5v-358z" />
<glyph unicode="&#xff;" horiz-adv-x="1064" d="M25 1026h196l326 -704l305 704h197l-621 -1403h-197l222 494zM190 1237v213h218v-213h-218zM655 1237v213h217v-213h-217z" />
<glyph unicode="&#x152;" horiz-adv-x="2000" d="M86 696q0 201 90.5 366t253 260t363.5 95q94 0 202 -24h908v-168h-725v-439h630v-168h-630v-450h725v-168h-908q-113 -25 -202 -25q-201 0 -363.5 95t-253 260t-90.5 366zM281 696q0 -234 142 -388t370 -154q91 0 196 32v1018q-103 35 -196 35q-228 0 -370 -154.5 t-142 -388.5z" />
<glyph unicode="&#x153;" horiz-adv-x="2011" d="M78 512q0 149 62.5 270.5t183.5 194t280 72.5q144 0 254.5 -61.5t175.5 -170.5q64 110 172 171t246 61q218 0 354 -143.5t136 -360.5q0 -31 -9 -96h-800q15 -142 105 -225t232 -83q103 0 190.5 49.5t145.5 131.5l113 -117q-80 -107 -195 -168.5t-256 -61.5 q-145 0 -255.5 61.5t-176.5 172.5q-65 -110 -175.5 -172t-256.5 -62q-159 0 -280 73t-183.5 194.5t-62.5 269.5zM266 512q0 -166 97 -267.5t245 -101.5t245 101.5t97 267.5t-97 267.5t-245 101.5t-245 -101.5t-97 -267.5zM1135 602h626q-10 130 -97.5 207.5t-215.5 77.5 q-125 0 -209 -76t-104 -209z" />
<glyph unicode="&#x178;" horiz-adv-x="1286" d="M18 1386v7h222l403 -609l404 609h219v-7l-529 -790v-596h-188v596zM301 1579v213h217v-213h-217zM766 1579v213h217v-213h-217z" />
<glyph unicode="&#x2c6;" d="M293 1188v6l250 307h182l252 -307v-6h-172l-172 196l-168 -196h-172z" />
<glyph unicode="&#x2dc;" d="M217 1260q31 95 87.5 144.5t131.5 49.5q47 0 90 -16t69 -36t57.5 -36t58.5 -16q35 0 59 26t45 76l119 -63q-63 -185 -219 -185q-46 0 -89 16.5t-69.5 37t-58 37t-58.5 16.5q-62 0 -102 -105z" />
<glyph unicode="&#x2000;" horiz-adv-x="921" />
<glyph unicode="&#x2001;" horiz-adv-x="1843" />
<glyph unicode="&#x2002;" horiz-adv-x="921" />
<glyph unicode="&#x2003;" horiz-adv-x="1843" />
<glyph unicode="&#x2004;" horiz-adv-x="614" />
<glyph unicode="&#x2005;" horiz-adv-x="460" />
<glyph unicode="&#x2006;" horiz-adv-x="307" />
<glyph unicode="&#x2007;" horiz-adv-x="307" />
<glyph unicode="&#x2008;" horiz-adv-x="230" />
<glyph unicode="&#x2009;" horiz-adv-x="368" />
<glyph unicode="&#x200a;" horiz-adv-x="102" />
<glyph unicode="&#x2010;" horiz-adv-x="833" d="M125 545v151h584v-151h-584z" />
<glyph unicode="&#x2011;" horiz-adv-x="833" d="M125 545v151h584v-151h-584z" />
<glyph unicode="&#x2012;" horiz-adv-x="833" d="M125 545v151h584v-151h-584z" />
<glyph unicode="&#x2013;" horiz-adv-x="1181" d="M125 545v151h932v-151h-932z" />
<glyph unicode="&#x2014;" horiz-adv-x="1904" d="M125 545v151h1655v-151h-1655z" />
<glyph unicode="&#x2018;" horiz-adv-x="464" d="M113 866v205l104 322h117l-94 -295h104v-232h-231z" />
<glyph unicode="&#x2019;" horiz-adv-x="448" d="M121 1161v232h231v-205l-104 -322h-117l94 295h-104z" />
<glyph unicode="&#x201a;" horiz-adv-x="485" d="M127 0v231h231v-204l-104 -322h-117l94 295h-104z" />
<glyph unicode="&#x201c;" horiz-adv-x="835" d="M113 866v205l104 322h117l-94 -295h104v-232h-231zM483 866v205l105 322h117l-95 -295h105v-232h-232z" />
<glyph unicode="&#x201d;" horiz-adv-x="819" d="M121 1161v232h231v-205l-104 -322h-117l94 295h-104zM492 1161v232h231v-205l-105 -322h-116l94 295h-104z" />
<glyph unicode="&#x201e;" horiz-adv-x="856" d="M127 0v231h231v-204l-104 -322h-117l94 295h-104zM498 0v231h231v-204l-104 -322h-117l94 295h-104z" />
<glyph unicode="&#x2022;" horiz-adv-x="819" d="M170 616q0 101 67 167.5t173 66.5t172.5 -66.5t66.5 -167.5t-66.5 -167t-172.5 -66t-173 66t-67 167z" />
<glyph unicode="&#x2026;" horiz-adv-x="1411" d="M125 0v244h244v-244h-244zM584 0v244h243v-244h-243zM1042 0v244h244v-244h-244z" />
<glyph unicode="&#x202f;" horiz-adv-x="368" />
<glyph unicode="&#x2039;" horiz-adv-x="673" d="M70 590v57l336 371h182v-6l-336 -394l336 -393v-6h-182z" />
<glyph unicode="&#x203a;" horiz-adv-x="673" d="M86 219v6l336 393l-336 394v6h182l336 -371v-57l-336 -371h-182z" />
<glyph unicode="&#x205f;" horiz-adv-x="460" />
<glyph unicode="&#x20ac;" d="M45 459v162h125q-2 25 -2 75q0 49 2 74h-125v162h150q57 224 210.5 354.5t364.5 130.5q261 0 420 -221l-121 -127q-111 170 -295 170q-139 0 -239 -79.5t-142 -227.5h533v-162h-561q-3 -37 -3 -74q0 -38 3 -75h561v-162h-533q44 -148 143.5 -226.5t237.5 -78.5 q184 0 295 170l121 -127q-160 -222 -420 -222q-210 0 -363.5 130.5t-209.5 353.5h-152z" />
<glyph unicode="&#x2122;" horiz-adv-x="1466" d="M68 1278v115h487v-115h-180v-487h-127v487h-180zM653 791v602h170l166 -408l164 408h170v-602h-127v415l-160 -415h-94l-162 415v-415h-127z" />
<glyph unicode="&#x25fc;" horiz-adv-x="1024" d="M0 0v1024h1024v-1024h-1024z" />
<glyph unicode="&#xfb01;" horiz-adv-x="1134" d="M51 874v152h172v113q0 147 86.5 237t247.5 90q54 0 74 -2v-153h-31q-99 0 -145.5 -42t-46.5 -132v-111h223v-152h-223v-874h-185v874h-172zM801 1260v221h198v-221h-198zM809 0v1026h184v-1026h-184z" />
<glyph unicode="&#xfb02;" horiz-adv-x="1134" d="M51 874v152h172v113q0 147 86.5 237t247.5 90q54 0 74 -2v-153h-31q-99 0 -145.5 -42t-46.5 -132v-111h223v-152h-223v-874h-185v874h-172zM809 0v1454h184v-1454h-184z" />
</font>
</defs>
</svg>
